<?xml version="1.0" ?><svg data-name="Layer 1" id="f77bfe72-cd32-42ee-b237-4cb16c73cd2e" viewBox="0 0 750 750" xmlns="http://www.w3.org/2000/svg"><defs><style>.fcbe8de7-ea22-4318-8f92-fb543b2c3c26{fill-rule:evenodd;}</style></defs><path class="fcbe8de7-ea22-4318-8f92-fb543b2c3c26" d="M570.49,352.69C567.88,249.68,483,167,378.54,167,275.35,167,191.2,247.79,186.71,349.2c-.1,2.78-.19,5.56-.19,8.35A189.14,189.14,0,0,0,214,456L179.42,558.21,285.77,524.4a192.32,192.32,0,0,0,92.77,23.74c106.08,0,192-85.32,192-190.59C570.58,355.93,570.58,354.31,570.49,352.69ZM378.54,517.75a160.81,160.81,0,0,1-88.81-26.52L227.7,511l20.14-59.52a158.58,158.58,0,0,1-30.75-93.94A148.35,148.35,0,0,1,217.9,342c7.91-81.1,77-144.66,160.64-144.66,84.79,0,154.45,65.18,160.93,147.71.35,4.14.53,8.26.53,12.49C540,445.92,467.54,517.75,378.54,517.75Z"/><path class="fcbe8de7-ea22-4318-8f92-fb543b2c3c26" d="M466.55,396c-4.75-2.33-27.86-13.67-32.18-15.19s-7.46-2.34-10.6,2.34-12.23,15.18-14.93,18.25-5.48,3.5-10.24,1.16-19.88-7.19-37.86-23.2c-13.93-12.31-23.45-27.6-26.15-32.27s-.27-7.2,2.07-9.53c2.15-2.15,4.66-5.48,7.09-8.17.63-.81,1.17-1.54,1.72-2.25a54.32,54.32,0,0,0,3-5.58c1.62-3.14.81-5.84-.36-8.18s-10.61-25.36-14.56-34.7S325.68,271,322.9,271s-5.85-.45-9-.45a17.39,17.39,0,0,0-12.58,5.84c-4.32,4.67-16.46,16-16.46,39a59.38,59.38,0,0,0,2.43,15.92c4.77,16.44,15,30,16.81,32.35,2.34,3.06,32.55,51.78,80.37,70.58,47.92,18.6,47.92,12.4,56.54,11.59s27.87-11.24,31.74-22.2,4-20.23,2.79-22.2S471.23,398.36,466.55,396Z"/></svg>