<?xml version="1.0" standalone="no"?>
<!DOCTYPE svg PUBLIC "-//W3C//DTD SVG 20010904//EN"
 "http://www.w3.org/TR/2001/REC-SVG-20010904/DTD/svg10.dtd">
<svg version="1.0" xmlns="http://www.w3.org/2000/svg"
 width="768.000000pt" height="768.000000pt" viewBox="0 0 768.000000 768.000000"
 preserveAspectRatio="xMidYMid meet">
<metadata>
Created by potrace 1.14, written by Peter Selinger 2001-2017
</metadata>
<g transform="translate(0.000000,768.000000) scale(0.100000,-0.100000)"
fill="#000000" stroke="none">
<path d="M6356 5362 c-3 -2 -29 -5 -58 -7 -74 -4 -139 -27 -242 -85 -40 -22
-148 -129 -185 -184 -32 -46 -80 -148 -78 -166 0 -3 -5 -16 -12 -29 -7 -13
-15 -44 -16 -68 -2 -25 -6 -48 -9 -50 -3 -3 -1 -15 5 -26 8 -15 8 -18 -1 -12
-9 5 -10 2 -3 -11 6 -11 9 -36 9 -57 -1 -20 3 -37 7 -37 5 0 7 -6 4 -12 -7
-22 52 -180 73 -193 5 -3 22 -29 39 -58 26 -46 94 -123 149 -168 11 -10 34
-20 51 -24 16 -3 47 -15 68 -25 21 -10 54 -21 73 -24 19 -3 49 -8 65 -11 67
-12 194 -14 226 -3 59 19 144 53 149 58 3 3 12 6 20 8 31 7 80 45 121 92 43
50 48 58 88 134 14 25 28 46 33 46 4 0 7 3 7 8 -3 20 3 32 17 32 11 0 14 -6 9
-20 -4 -12 -9 -44 -11 -73 -2 -29 -7 -68 -9 -87 -3 -19 -5 -54 -6 -77 0 -24
-4 -43 -8 -43 -4 0 -8 -8 -9 -17 -3 -31 -7 -48 -14 -59 -4 -6 -9 -24 -12 -40
-3 -16 -15 -54 -27 -84 -11 -30 -26 -70 -32 -87 -6 -18 -14 -33 -19 -33 -4 0
-8 -5 -8 -12 0 -17 -53 -118 -62 -118 -4 0 -8 -6 -8 -13 0 -13 -82 -119 -136
-175 l-31 -32 -17 25 c-9 14 -13 25 -9 25 5 0 2 4 -5 9 -7 4 -14 15 -16 24 -1
9 -17 39 -35 66 -83 129 -197 198 -323 194 -68 -3 -122 -63 -134 -152 -4 -31
-1 -49 16 -76 12 -20 21 -37 19 -38 -62 -41 -79 -56 -99 -86 -13 -20 -25 -40
-26 -46 -1 -5 -4 -22 -7 -37 -8 -38 10 -89 44 -128 16 -18 29 -37 29 -42 0 -5
4 -7 9 -4 5 3 14 0 20 -8 20 -23 106 -35 176 -23 86 15 106 20 111 28 3 5 47
37 97 71 51 34 94 64 97 67 8 9 30 12 31 4 1 -5 2 -21 3 -38 1 -16 4 -34 7
-40 15 -27 -22 -305 -40 -305 -3 0 -7 -10 -7 -22 -2 -31 -10 -63 -23 -87 -6
-11 -11 -29 -11 -40 0 -12 -4 -21 -10 -21 -5 0 -10 -9 -10 -20 0 -10 -8 -24
-17 -29 -10 -6 -15 -11 -10 -11 10 0 -44 -80 -54 -80 -5 0 -9 -6 -9 -12 -1
-18 -60 -80 -92 -97 -32 -17 -51 -10 -74 25 -21 31 -27 145 -11 206 8 31 7 43
-5 54 -31 32 -63 -7 -73 -90 -12 -99 -94 -216 -188 -268 -46 -26 -82 -23 -107
9 -18 23 -21 39 -19 111 2 80 4 87 33 121 58 66 93 115 129 181 80 147 80 243
2 276 -49 20 -69 18 -105 -12 -57 -48 -100 -154 -115 -284 -3 -30 -8 -68 -11
-84 -3 -16 -7 -53 -9 -83 -6 -60 -40 -136 -78 -171 -29 -27 -80 -41 -116 -32
-28 6 -46 55 -38 100 71 401 77 451 53 502 -21 43 -83 81 -128 76 -46 -4 -46
-24 0 -32 63 -10 71 -27 58 -131 -14 -111 -19 -144 -38 -245 -42 -218 -36
-265 37 -296 78 -32 175 -4 222 64 l22 33 11 -43 c17 -62 45 -96 91 -109 78
-24 169 33 253 157 l42 63 17 -37 c25 -57 77 -103 125 -109 48 -6 63 4 161
117 35 41 112 185 104 194 -4 3 -2 6 3 6 8 0 25 49 40 113 1 4 2 8 4 10 5 6
23 119 24 155 0 17 3 32 6 32 7 0 4 153 -4 215 -6 44 -4 53 19 80 15 17 45 52
68 79 23 26 50 57 60 67 9 11 16 20 15 22 -1 1 10 20 23 42 14 22 36 66 48 98
13 31 27 57 32 57 5 0 8 3 7 8 -4 12 36 112 44 112 5 0 8 6 7 13 -1 6 2 23 8
37 18 41 27 64 28 75 0 6 3 15 7 20 12 20 39 132 43 180 2 17 4 30 5 30 1 0 4
74 6 165 2 91 5 185 6 210 1 25 -2 77 -7 115 -5 39 -8 76 -6 83 1 8 -2 19 -7
25 -5 7 -8 24 -7 40 1 15 -2 27 -7 27 -5 0 -7 3 -5 8 2 4 -3 19 -12 34 -23 39
-142 192 -155 200 -6 3 -22 16 -35 27 -13 11 -28 18 -32 15 -5 -3 -9 -1 -9 4
0 7 -77 56 -90 57 -3 0 -11 4 -19 9 -11 7 -12 6 -6 -5 7 -11 5 -11 -10 1 -10
8 -21 14 -24 13 -3 -2 -19 1 -36 6 -56 18 -189 33 -199 23z m77 -62 c-4 -4
-42 -30 -83 -58 -81 -56 -177 -132 -165 -132 4 0 -4 -12 -19 -26 -43 -44 -136
-161 -136 -172 0 -6 -3 -12 -7 -14 -12 -5 -75 -128 -66 -128 4 0 3 -4 -2 -8
-13 -8 -67 -132 -58 -132 3 0 0 -6 -6 -13 -6 -8 -8 -17 -4 -20 3 -4 1 -7 -6
-7 -7 0 -10 -3 -7 -8 2 -4 -1 -18 -8 -31 l-13 -23 -12 30 c-9 21 -10 36 -3 49
6 10 12 32 16 48 8 47 32 106 39 98 4 -3 8 1 8 10 3 34 28 87 41 87 5 0 7 4 4
9 -3 5 1 14 9 21 8 7 15 19 15 26 0 8 5 14 10 14 6 0 10 5 10 11 0 6 6 16 13
23 30 32 57 67 57 75 0 11 137 150 178 181 19 14 43 34 53 44 10 11 19 16 19
11 0 -4 8 -1 18 8 25 23 83 46 100 40 7 -3 10 -9 5 -13z m-141 -10 c-11 -11
-26 -20 -31 -20 -6 0 -15 -8 -20 -17 -6 -10 -11 -14 -11 -10 0 10 -70 -53
-129 -117 -25 -28 -56 -60 -68 -73 -13 -13 -23 -26 -23 -29 0 -3 -16 -26 -36
-50 -20 -24 -33 -44 -30 -44 7 0 -4 -15 -36 -51 -10 -10 -15 -19 -12 -19 7 0
-38 -83 -50 -91 -5 -4 -5 -12 -2 -18 4 -6 3 -11 -3 -11 -5 0 -13 -9 -16 -20
-3 -11 -10 -20 -14 -20 -12 0 -4 54 8 58 6 2 11 17 11 33 0 16 4 29 8 29 4 0
9 11 10 25 2 28 55 119 64 110 3 -4 5 0 5 8 -3 22 121 181 166 212 12 8 22 19
22 23 0 4 3 6 8 5 4 -2 7 1 7 6 0 8 101 80 128 91 7 3 25 7 40 8 l26 2 -22
-20z m259 0 c23 0 -7 -29 -41 -39 -21 -6 -61 -27 -89 -46 -28 -18 -51 -32 -51
-29 0 9 -96 -93 -120 -127 -13 -18 -32 -41 -42 -50 -10 -9 -15 -18 -13 -21 3
-3 -5 -16 -17 -30 -13 -14 -24 -31 -26 -39 -2 -8 -7 -16 -11 -19 -5 -3 -11
-15 -15 -27 -4 -13 -12 -23 -17 -23 -5 0 -9 -6 -9 -14 0 -8 -7 -22 -16 -30 -8
-9 -12 -16 -8 -16 4 0 -1 -9 -11 -20 -10 -11 -14 -20 -9 -20 5 0 3 -4 -4 -9
-7 -4 -15 -14 -16 -22 -3 -15 -12 -39 -28 -79 -5 -14 -10 -26 -9 -27 0 -2 -8
-23 -19 -48 -11 -25 -19 -49 -19 -53 1 -4 0 -10 -1 -14 -3 -9 -3 -9 -14 -56
l-8 -34 -22 21 c-29 27 -25 88 10 184 8 23 19 54 23 68 5 14 16 39 24 56 9 17
13 33 10 37 -4 3 -1 6 5 6 7 0 12 7 12 15 0 8 8 23 18 33 9 10 18 25 20 32 5
22 74 122 89 127 7 3 11 8 8 13 -4 7 129 148 176 185 52 42 118 85 128 85 6 0
11 5 11 11 0 5 3 8 8 5 4 -2 18 2 32 10 14 7 31 11 38 9 8 -3 18 -5 23 -5z
m19 -74 c-19 -13 -38 -22 -42 -19 -5 2 -8 -1 -8 -7 0 -6 -8 -14 -17 -17 -27
-10 -69 -48 -175 -157 -54 -54 -95 -103 -92 -108 3 -4 1 -8 -4 -8 -5 0 -21
-18 -36 -40 -14 -22 -24 -40 -20 -40 3 0 -2 -7 -10 -16 -9 -8 -16 -22 -16 -30
0 -8 -4 -14 -10 -14 -6 0 -9 -3 -8 -7 1 -5 -6 -25 -15 -46 -9 -20 -17 -41 -17
-45 -1 -4 -6 -12 -11 -18 -5 -7 -11 -20 -13 -31 -2 -10 -9 -38 -16 -63 -7 -25
-14 -54 -16 -65 -2 -11 -6 -32 -9 -46 -3 -14 -6 -55 -7 -91 l-1 -66 -23 16
c-12 9 -20 20 -17 25 2 4 -1 7 -7 7 -15 0 -8 40 30 175 26 93 79 227 94 237 6
4 7 8 2 8 -5 0 -2 8 6 18 9 9 19 27 22 40 4 12 12 22 17 22 5 0 9 5 9 11 0 6
14 30 30 54 17 24 30 46 30 50 0 14 102 139 138 169 7 6 22 19 33 29 10 9 19
14 19 10 0 -3 8 1 18 9 21 18 112 61 130 61 6 0 12 4 12 9 0 4 8 8 17 8 12 0
6 -8 -17 -24z m-512 -10 c-10 -7 -15 -16 -11 -19 3 -4 1 -7 -6 -7 -15 0 -45
-32 -96 -103 -22 -31 -46 -58 -54 -62 -15 -6 -19 -11 54 80 54 68 110 125 122
125 4 0 0 -7 -9 -14z m689 -12 c2 -6 -2 -11 -9 -11 -7 0 -21 -4 -30 -8 -11 -4
-18 -3 -18 4 0 6 -8 8 -17 5 -15 -5 -15 -3 2 11 22 17 66 17 72 -1z m70 -61
c0 -7 -3 -13 -6 -14 -3 0 -15 -3 -26 -6 -32 -8 -253 -9 -261 0 -4 4 1 13 10
20 25 18 283 18 283 0z m43 -58 c0 -6 -20 -17 -45 -26 -30 -11 -45 -13 -45 -5
0 7 -3 8 -8 1 -10 -15 -59 -19 -196 -18 -128 2 -154 11 -112 38 18 12 34 15
58 9 38 -9 158 -12 158 -4 0 3 29 5 65 5 36 0 65 2 65 5 0 3 14 5 30 5 17 0
30 -5 30 -10z m46 -77 c7 -23 5 -26 -27 -32 -13 -2 -24 -5 -24 -7 0 -1 -9 -3
-20 -4 -11 -2 -36 -6 -55 -10 -54 -11 -200 -13 -200 -2 0 5 -6 4 -13 -2 -8 -6
-16 -9 -18 -6 -3 2 -34 5 -69 6 -64 2 -80 9 -80 39 0 13 26 15 181 14 99 0
182 3 185 7 2 4 15 6 29 5 13 -2 22 0 20 5 -6 9 41 16 67 11 10 -2 20 -13 24
-24z m31 -66 c17 -11 12 -50 -7 -58 -47 -21 -138 -35 -252 -38 -43 -1 -81 -5
-84 -9 -4 -3 -11 -4 -17 0 -5 3 -26 7 -46 8 -20 0 -61 9 -92 19 -46 15 -56 21
-52 37 5 17 14 18 104 15 54 -2 102 -7 108 -10 5 -4 12 -2 16 4 4 7 12 7 25 0
12 -6 21 -7 25 0 4 6 15 6 31 0 14 -6 30 -7 36 -4 10 6 65 15 111 17 9 1 17 5
17 10 0 4 3 6 8 4 4 -3 16 -1 27 4 26 10 28 10 42 1z m-606 -44 c0 -18 2 -42
4 -53 3 -11 7 -40 10 -65 6 -47 8 -59 20 -122 4 -24 2 -38 -4 -38 -6 0 -11 8
-11 18 0 9 -7 35 -14 57 -8 22 -12 48 -11 57 2 10 0 18 -4 18 -4 0 -8 6 -8 13
-1 6 -4 34 -7 62 -6 53 -1 85 15 85 5 0 9 -15 10 -32z m-59 -85 c0 -16 1 -34
1 -40 -1 -7 4 -13 9 -13 6 0 8 -9 5 -20 -3 -11 -1 -20 4 -20 6 0 9 -6 8 -12
-1 -7 0 -20 3 -28 3 -8 11 -35 18 -60 7 -25 18 -59 26 -75 17 -40 31 -78 33
-88 2 -16 95 -192 103 -195 4 -2 8 -10 8 -18 0 -8 4 -14 8 -14 4 0 8 -10 9
-22 2 -22 0 -21 -24 7 -84 99 -130 172 -125 198 1 4 -3 7 -9 7 -5 0 -7 5 -4
10 3 6 1 10 -4 10 -6 0 -10 3 -10 8 1 4 0 10 -1 15 -1 4 -3 10 -4 15 -1 4 -10
24 -19 46 -9 21 -17 44 -17 50 0 7 -4 16 -9 22 -11 12 -49 130 -54 169 -5 36
11 75 30 75 7 0 14 -12 15 -27z m151 18 c55 -21 180 -32 209 -19 9 5 20 4 23
-2 4 -6 11 -7 17 -4 18 11 102 11 117 0 11 -8 13 -8 8 0 -4 7 7 11 29 12 19 1
40 4 46 8 6 4 28 9 49 11 30 4 39 1 39 -10 0 -15 -14 -22 -59 -32 -12 -3 -31
-7 -43 -10 -64 -14 -105 -18 -243 -19 -179 -3 -235 10 -227 49 5 29 3 28 35
16z m547 -67 c0 -21 -26 -45 -58 -53 -44 -12 -99 -23 -127 -25 -11 -1 -24 -4
-30 -7 -20 -11 -251 -1 -328 14 -15 3 -37 30 -31 38 3 5 79 4 139 -2 6 -1 26
-1 45 0 19 0 49 0 65 -2 17 -2 35 1 42 5 6 5 14 5 18 -2 3 -6 11 -8 16 -4 14
8 65 16 116 18 24 0 43 4 43 7 0 3 16 5 35 4 19 -1 35 2 35 7 0 4 5 8 10 8 6
0 10 -3 10 -6z m-764 -70 c1 -9 6 -23 10 -32 4 -9 8 -22 9 -29 2 -6 17 -47 35
-92 18 -44 31 -83 30 -87 -1 -4 3 -10 10 -14 6 -4 13 -13 14 -21 2 -8 8 -25
13 -39 6 -14 12 -29 13 -35 1 -5 11 -21 21 -34 11 -13 19 -30 19 -37 0 -8 4
-14 8 -14 5 0 22 -20 40 -45 17 -25 28 -45 24 -45 -15 0 -73 41 -78 55 -4 8
-10 12 -15 9 -5 -3 -9 0 -9 5 0 6 -7 19 -16 29 -15 18 -75 143 -90 186 -3 12
-7 23 -8 26 -1 3 -7 15 -14 28 -7 12 -10 22 -6 22 3 0 1 7 -6 15 -7 8 -9 15
-6 15 4 0 3 8 -2 18 -13 22 -24 121 -16 133 7 12 17 4 20 -17z m754 -27 c0
-21 -82 -53 -140 -56 -8 0 -40 -4 -70 -8 -91 -12 -274 -8 -309 7 -47 19 -38
45 17 45 23 0 42 -2 42 -5 0 -6 266 -3 300 3 14 3 50 8 80 12 30 3 57 8 59 11
9 9 21 3 21 -9z m-789 -102 c7 -27 14 -53 15 -57 1 -5 3 -11 4 -15 1 -5 2 -11
1 -15 0 -5 3 -8 7 -8 5 0 15 -23 22 -51 8 -27 18 -52 22 -55 4 -3 8 -14 8 -25
0 -10 4 -19 8 -19 4 0 16 -20 26 -45 11 -25 24 -45 29 -45 6 0 7 -3 4 -6 -3
-4 5 -15 18 -26 25 -20 33 -38 16 -38 -11 0 -117 104 -143 140 -10 13 -18 30
-18 37 0 7 -4 13 -8 13 -13 0 -54 126 -58 173 -3 44 15 112 27 99 3 -4 12 -29
20 -57z m213 12 c3 -16 1 -25 -5 -22 -5 4 -9 18 -9 32 0 32 7 27 14 -10z m540
-5 c-29 -27 -74 -45 -74 -29 0 9 -2 9 -8 0 -4 -7 -19 -15 -32 -17 -14 -2 -25
-5 -25 -6 0 -11 -177 -15 -265 -5 -49 5 -90 29 -75 43 2 2 73 5 157 5 84 0
163 4 176 8 16 6 21 6 16 -2 -4 -8 -1 -8 12 -1 11 6 41 12 67 15 27 3 51 8 54
11 4 3 9 4 12 1 3 -3 -4 -14 -15 -23z m-520 -48 c3 -8 2 -12 -4 -9 -6 3 -10
10 -10 16 0 14 7 11 14 -7z m467 -44 c-12 -11 -27 -17 -32 -14 -5 3 -9 1 -9
-4 0 -5 -10 -13 -22 -17 -13 -4 -27 -9 -33 -10 -51 -17 -74 -22 -79 -17 -3 3
-6 1 -6 -4 0 -5 -33 -10 -73 -12 -64 -2 -75 1 -99 22 -53 45 -40 51 100 52
118 0 221 9 231 20 2 2 14 4 25 4 20 -1 20 -1 -3 -20z m-438 -20 c3 -11 3 -20
1 -20 -2 0 -8 9 -14 20 -6 11 -7 20 -2 20 6 0 12 -9 15 -20z m-318 -50 c-3 -4
2 -13 10 -20 7 -6 11 -18 8 -26 -3 -8 -1 -14 3 -14 5 0 18 -18 28 -40 11 -22
35 -59 54 -81 19 -22 32 -42 29 -45 -10 -11 -66 26 -72 48 -4 13 -14 31 -23
41 -8 9 -11 17 -6 17 5 0 4 4 -2 8 -19 12 -54 89 -54 118 0 22 2 25 15 14 8
-7 13 -16 10 -20z m395 -79 c0 -6 3 -11 8 -11 10 -1 112 -94 112 -103 0 -4 -3
-6 -7 -5 -5 0 -16 -2 -26 -7 -18 -7 -57 18 -57 37 0 5 -11 21 -25 36 -14 15
-25 35 -25 44 0 10 -4 18 -8 18 -11 0 -32 46 -25 53 7 7 53 -47 53 -62z m290
49 c-8 -6 -11 -10 -7 -10 21 0 -40 -45 -75 -55 -5 -2 -9 -4 -10 -5 -2 -1 -24
-3 -50 -4 -37 -2 -53 3 -74 21 -15 13 -24 26 -20 30 7 8 59 15 123 17 24 0 43
4 43 7 0 3 14 6 31 7 17 0 34 3 37 6 3 3 8 4 11 0 3 -3 -1 -9 -9 -14z m-686
-120 c14 -30 7 -41 -11 -17 -13 16 -23 58 -13 52 5 -3 15 -19 24 -35z m121
-443 c58 -10 185 -91 185 -118 0 -4 11 -20 24 -34 13 -14 36 -51 51 -82 42
-90 37 -112 -40 -169 -32 -24 -62 -44 -67 -44 -5 0 -18 -8 -28 -18 -24 -22
-100 -61 -132 -68 -51 -11 -138 -6 -160 8 -28 19 -70 55 -68 60 1 2 -5 18 -13
37 -12 29 -13 39 -1 67 14 33 64 94 64 78 0 -5 4 -3 8 4 9 13 41 23 78 25 12
1 27 9 33 19 10 16 6 20 -23 34 -32 16 -81 86 -68 98 3 4 7 17 9 29 2 12 19
36 38 54 35 31 42 32 110 20z m-254 -634 c26 -31 17 -102 -24 -188 -34 -71
-95 -164 -135 -204 -12 -13 -14 -10 -8 25 3 21 8 72 11 112 4 41 8 81 10 90
25 124 58 182 104 182 16 0 35 -7 42 -17z"/>
<path d="M1663 3274 c-92 -24 -152 -72 -209 -170 -46 -78 -84 -215 -88 -314
-2 -40 -63 -153 -109 -203 -71 -76 -130 -102 -177 -77 -27 14 -37 56 -35 137
2 62 6 77 29 105 81 100 109 141 147 218 35 69 43 95 43 143 1 52 -2 61 -27
82 -38 33 -88 41 -120 20 -14 -9 -40 -38 -56 -64 -50 -77 -58 -115 -97 -421
-6 -52 -49 -137 -80 -157 -29 -18 -74 -30 -102 -25 -44 7 -57 68 -36 161 9 36
18 80 21 96 2 17 8 55 13 85 13 76 23 169 23 207 -1 69 -69 133 -140 133 -45
0 -44 -26 2 -34 53 -10 65 -28 59 -89 -8 -89 -42 -309 -58 -377 -30 -126 -12
-186 61 -208 87 -26 149 -9 206 58 33 39 37 41 37 20 0 -13 9 -43 20 -66 22
-44 67 -74 112 -74 72 1 185 98 245 212 l20 37 16 -58 c60 -214 392 -211 602
6 27 28 57 49 71 50 29 2 29 5 -1 -81 -36 -108 -17 -156 63 -156 51 0 106 23
128 54 14 21 15 21 40 -12 47 -60 117 -78 187 -48 47 19 113 98 126 150 9 36
15 44 38 48 16 3 35 8 43 12 12 5 15 -3 16 -46 0 -68 20 -109 64 -130 80 -41
170 -9 264 93 l58 63 -7 -93 c-7 -97 0 -121 35 -121 26 0 43 26 42 63 -3 75
47 163 112 198 54 28 75 22 71 -23 -2 -18 -8 -44 -12 -58 -5 -14 -11 -44 -12
-67 -2 -34 3 -47 23 -68 44 -44 113 -25 172 48 l27 35 21 -31 c31 -45 62 -59
120 -53 69 8 152 51 212 111 l52 51 5 -50 c12 -116 66 -152 162 -107 61 28
104 78 147 167 41 89 43 94 28 94 -5 0 -21 -24 -35 -54 -37 -78 -90 -143 -137
-167 -94 -48 -119 10 -84 196 3 17 8 48 10 70 3 22 12 89 21 149 8 60 15 111
15 113 0 2 18 3 40 3 27 0 40 4 40 13 0 9 -12 13 -37 13 -42 -1 -38 -13 -41
112 -3 78 -24 68 -57 -25 -15 -43 -29 -83 -30 -90 -2 -6 -17 -14 -34 -18 -40
-9 -40 -28 0 -21 l31 5 -6 -57 c-3 -31 -8 -66 -10 -77 -2 -11 -7 -42 -10 -70
-14 -111 -18 -130 -33 -158 -35 -68 -143 -152 -203 -157 -72 -6 -120 26 -120
81 0 41 51 147 89 183 43 41 111 39 111 -4 0 -27 -57 -67 -107 -75 -59 -9 -56
-30 3 -21 133 18 175 135 58 160 -74 16 -186 -81 -210 -181 -21 -86 -97 -173
-137 -157 -20 7 -27 36 -27 110 0 73 -16 123 -38 126 -56 5 -107 -16 -152 -62
l-28 -29 2 59 c3 58 5 61 51 102 148 131 213 375 114 429 -53 28 -107 15 -148
-36 -20 -27 -46 -96 -56 -150 -25 -143 -35 -211 -39 -278 -5 -73 -8 -82 -48
-133 -46 -59 -118 -113 -152 -115 -93 -5 -119 16 -120 94 0 78 27 141 68 161
44 21 52 20 88 -5 34 -24 45 -20 26 10 -16 25 -77 51 -122 51 -27 0 -41 -8
-70 -40 -20 -22 -36 -46 -36 -53 0 -19 -40 -52 -77 -65 -33 -11 -33 -11 -33
22 0 41 -39 86 -74 86 -61 0 -103 -48 -85 -97 9 -26 31 -39 83 -48 36 -7 38
-9 32 -37 -9 -44 -37 -77 -77 -88 -82 -23 -95 -23 -123 2 -38 33 -46 72 -29
138 16 63 42 95 90 111 55 18 24 31 -33 14 -84 -25 -134 -89 -137 -174 -2 -42
-6 -51 -37 -75 -38 -30 -76 -31 -93 -4 -8 12 -4 36 16 95 15 43 27 86 27 96 0
21 -23 32 -47 21 -23 -9 -73 -17 -73 -10 0 3 9 20 20 39 37 62 -7 97 -60 47
-31 -29 -37 -58 -19 -92 9 -17 6 -25 -18 -50 -108 -113 -313 -173 -418 -122
-74 36 -91 72 -94 193 -3 138 56 305 141 396 64 71 202 110 242 69 21 -20 20
-32 -4 -79 -22 -44 -24 -55 -11 -55 16 0 52 68 53 99 2 75 -102 115 -219 85z
m1651 -45 c83 -38 33 -235 -95 -374 -23 -25 -44 -43 -48 -40 -4 2 -7 71 -6
152 2 114 6 157 19 188 33 78 72 100 130 74z m-2084 -69 c28 -52 -7 -157 -94
-289 -36 -54 -105 -133 -84 -96 3 6 9 44 12 85 13 140 16 165 32 219 8 30 23
65 31 78 30 46 79 47 103 3z m811 -379 c-7 -12 -16 -21 -21 -21 -14 0 -12 34
2 48 18 18 32 -2 19 -27z m525 -22 c3 -6 9 -26 11 -45 5 -38 -8 -43 -65 -23
-37 13 -45 30 -26 58 16 23 68 29 80 10z"/>
<path d="M4353 3247 c-38 -14 -67 -40 -61 -57 2 -7 12 -4 30 9 56 45 138 35
156 -19 11 -31 7 -185 -8 -305 -5 -44 -12 -109 -16 -145 -3 -36 -11 -87 -18
-115 -15 -64 -11 -87 16 -83 22 3 48 66 64 153 4 22 8 42 9 45 1 3 5 30 9 60
5 30 10 64 12 75 11 54 13 185 4 239 -5 33 -8 61 -6 63 12 12 124 43 167 47
128 10 182 -49 196 -213 11 -138 -30 -269 -112 -354 -42 -44 -48 -47 -97 -48
-91 -1 -106 -4 -127 -23 -28 -26 -28 -72 1 -87 36 -20 118 -4 209 40 46 23 95
41 109 41 33 0 118 41 153 74 31 29 47 33 47 12 0 -7 18 -34 41 -59 51 -58 92
-69 143 -38 34 22 97 105 116 156 12 32 12 35 1 35 -5 0 -28 -32 -51 -71 -64
-108 -125 -131 -174 -66 -24 32 -31 138 -14 205 8 32 7 46 -2 57 -32 39 -66
-8 -77 -105 -5 -57 -9 -64 -53 -103 -42 -38 -116 -74 -128 -62 -2 2 7 19 21
37 54 70 89 193 88 308 -1 180 -77 286 -214 298 -57 5 -151 -12 -212 -38 -43
-18 -43 -18 -62 2 -41 46 -97 58 -160 35z m342 -687 c-6 -9 -69 -30 -92 -30
-21 0 -15 20 10 30 30 12 90 12 82 0z"/>
<path d="M5096 3034 c-19 -18 -14 -63 7 -76 38 -24 71 9 58 58 -9 34 -40 43
-65 18z"/>
<path d="M6136 3031 c-30 -33 -6 -81 41 -81 26 0 36 24 25 65 -10 36 -41 44
-66 16z"/>
</g>
</svg>
